<?xml version="1.0" encoding="UTF-8"?>
<svg width="16px" height="16px" viewBox="0 0 16 16" version="1.1" xmlns="http://www.w3.org/2000/svg" xmlns:xlink="http://www.w3.org/1999/xlink">
    <!-- Generator: Sketch 56.3 (81716) - https://sketch.com -->
    <title>foriegn-key-icon</title>
    <desc>Created with Sketch.</desc>
    <g id="Page-1" stroke="none" stroke-width="1" fill="none" fill-rule="evenodd">
        <g id="foriegn-key-icon" fill="#000000" fill-rule="nonzero">
            <path d="M11,5 L8.33333333,5 L8.33333333,6.33333333 L11,6.33333333 C12.1,6.33333333 13,7.23333333 13,8.33333333 C13,9.43333333 12.1,10.3333333 11,10.3333333 L8.33333333,10.3333333 L8.33333333,11.6666667 L11,11.6666667 C12.84,11.6666667 14.3333333,10.1733333 14.3333333,8.33333333 C14.3333333,6.49333333 12.84,5 11,5 Z M7,10.3333333 L4.33333333,10.3333333 C3.23333333,10.3333333 2.33333333,9.43333333 2.33333333,8.33333333 C2.33333333,7.23333333 3.23333333,6.33333333 4.33333333,6.33333333 L7,6.33333333 L7,5 L4.33333333,5 C2.49333333,5 1,6.49333333 1,8.33333333 C1,10.1733333 2.49333333,11.6666667 4.33333333,11.6666667 L7,11.6666667 L7,10.3333333 Z M5,7.66666667 L10.3333333,7.66666667 L10.3333333,9 L5,9 L5,7.66666667 Z" id="Shape"></path>
        </g>
    </g>
</svg>