<?xml version="1.0" encoding="UTF-8"?>
<svg width="16px" height="16px" viewBox="0 0 16 16" version="1.1" xmlns="http://www.w3.org/2000/svg" xmlns:xlink="http://www.w3.org/1999/xlink">
    <!-- Generator: Sketch 56.3 (81716) - https://sketch.com -->
    <title>primary-key-icon</title>
    <desc>Created with Sketch.</desc>
    <g id="Page-1" stroke="none" stroke-width="1" fill="none" fill-rule="evenodd">
        <g id="primary-key-icon" fill="#000000" fill-rule="nonzero">
            <path d="M14.6666667,12.3333333 L10.6666667,12.3333333 L10.6666667,9.66666667 L8.88,9.66666667 C8.12,11.28 6.48,12.3333333 4.66666667,12.3333333 C2.09333333,12.3333333 0,10.24 0,7.66666667 C0,5.09333333 2.09333333,3 4.66666667,3 C6.48,3 8.11333333,4.05333333 8.88,5.66666667 L16,5.66666667 L16,9.66666667 L14.6666667,9.66666667 L14.6666667,12.3333333 Z M12,11 L13.3333333,11 L13.3333333,8.33333333 L14.6666667,8.33333333 L14.6666667,7 L7.96,7 L7.80666667,6.55333333 C7.34,5.22666667 6.07333333,4.33333333 4.66666667,4.33333333 C2.82666667,4.33333333 1.33333333,5.82666667 1.33333333,7.66666667 C1.33333333,9.50666667 2.82666667,11 4.66666667,11 C6.07333333,11 7.34,10.1066667 7.80666667,8.78 L7.96,8.33333333 L12,8.33333333 L12,11 Z M4.66666667,9.66666667 C3.56666667,9.66666667 2.66666667,8.76666667 2.66666667,7.66666667 C2.66666667,6.56666667 3.56666667,5.66666667 4.66666667,5.66666667 C5.76666667,5.66666667 6.66666667,6.56666667 6.66666667,7.66666667 C6.66666667,8.76666667 5.76666667,9.66666667 4.66666667,9.66666667 Z M4.66666667,7 C4.3,7 4,7.3 4,7.66666667 C4,8.03333333 4.3,8.33333333 4.66666667,8.33333333 C5.03333333,8.33333333 5.33333333,8.03333333 5.33333333,7.66666667 C5.33333333,7.3 5.03333333,7 4.66666667,7 Z" id="Shape"></path>
        </g>
    </g>
</svg>