<?xml version="1.0" encoding="UTF-8"?>
<svg width="12px" height="12px" viewBox="0 0 12 12" version="1.1" xmlns="http://www.w3.org/2000/svg" xmlns:xlink="http://www.w3.org/1999/xlink">
    <!-- Generator: Sketch 56.3 (81716) - https://sketch.com -->
    <title>table-icon</title>
    <desc>Created with Sketch.</desc>
    <g id="Page-1" stroke="none" stroke-width="1" fill="none" fill-rule="evenodd">
        <g id="Artboard" transform="translate(-18.000000, -93.000000)" fill="#D8D8D8">
            <g id="table-icon" transform="translate(18.000000, 93.000000)">
                <path d="M9,1 L9,11 L2,11 L2,1 L9,1 Z M2.85185185,1.85185185 L2.85185185,3.92592593 L4.92592593,3.92592593 L4.92592593,1.85185185 L2.85185185,1.85185185 Z M5.96296296,1.85185185 L5.96296296,3.92592593 L8.03703704,3.92592593 L8.03703704,1.85185185 L5.96296296,1.85185185 Z M2.85185185,4.96296296 L2.85185185,7.03703704 L4.92592593,7.03703704 L4.92592593,4.96296296 L2.85185185,4.96296296 Z M5.96296296,4.96296296 L5.96296296,7.03703704 L8.03703704,7.03703704 L8.03703704,4.96296296 L5.96296296,4.96296296 Z M2.85185185,8.07407407 L2.85185185,10.1481481 L4.92592593,10.1481481 L4.92592593,8.07407407 L2.85185185,8.07407407 Z M5.96296296,8.07407407 L5.96296296,10.1481481 L8.03703704,10.1481481 L8.03703704,8.07407407 L5.96296296,8.07407407 Z" id="Shape"></path>
            </g>
        </g>
    </g>
</svg>