<svg xmlns="http://www.w3.org/2000/svg" xmlns:xlink="http://www.w3.org/1999/xlink" width="619" height="646" viewBox="0 0 619 646">
  <defs>
    <rect id="architectures-a" width="297" height="75" rx="37.5"/>
    <mask id="architectures-g" width="297" height="75" x="0" y="0" fill="#fff">
      <use xlink:href="#architectures-a"/>
    </mask>
    <rect id="architectures-b" width="238" height="89" rx="44.5"/>
    <mask id="architectures-h" width="238" height="89" x="0" y="0" fill="#fff">
      <use xlink:href="#architectures-b"/>
    </mask>
    <rect id="architectures-c" width="136" height="89" rx="44.5"/>
    <mask id="architectures-i" width="136" height="89" x="0" y="0" fill="#fff">
      <use xlink:href="#architectures-c"/>
    </mask>
    <rect id="architectures-d" width="190" height="99" rx="49.5"/>
    <mask id="architectures-j" width="190" height="99" x="0" y="0" fill="#fff">
      <use xlink:href="#architectures-d"/>
    </mask>
    <rect id="architectures-e" width="128" height="171" rx="19"/>
    <mask id="architectures-k" width="128" height="171" x="0" y="0" fill="#fff">
      <use xlink:href="#architectures-e"/>
    </mask>
    <rect id="architectures-f" width="156" height="139" rx="36"/>
    <mask id="architectures-l" width="156" height="139" x="0" y="0" fill="#fff">
      <use xlink:href="#architectures-f"/>
    </mask>
  </defs>
  <g fill="none" fill-rule="evenodd" transform="translate(-2 -74)">
    <g transform="translate(16 459)">
      <use fill="#A7E1FF" fill-opacity=".2" stroke="#009CFF" stroke-dasharray="4 2" stroke-linejoin="bevel" stroke-width="6" mask="url(#architectures-g)" xlink:href="#architectures-a"/>
      <text fill="#160051" font-family="ArialMT, Arial" font-size="11">
        <tspan x="122" y="63">Extensions</tspan>
      </text>
      <g fill-rule="nonzero" transform="translate(243 12)">
        <circle cx="20" cy="20" r="20" fill="#1DA2F8"/>
        <g fill="#F2F2F2" transform="translate(2 2)">
          <path d="M18.5 1.61700837C18.3665523 1.61700837 18.2583389 1.50879498 18.2583389 1.37534728L18.2583389.269527197C18.2583389.136079498 18.3665523.0278661088 18.5.0278661088 18.6334477.0278661088 18.7416611.136079498 18.7416611.269527197L18.7416611 1.37534728C18.7416611 1.50879498 18.6334477 1.61700837 18.5 1.61700837zM18.5 36.9721339C18.3665523 36.9721339 18.2583389 36.8639205 18.2583389 36.7304728L18.2583389 35.6246527C18.2583389 35.491205 18.3665523 35.3829916 18.5 35.3829916 18.6334477 35.3829916 18.7416611 35.491205 18.7416611 35.6246527L18.7416611 36.7304728C18.7416611 36.8639205 18.6334477 36.9721339 18.5 36.9721339zM15.5260669 1.87724686C15.410887 1.87724686 15.3089435 1.79473222 15.2882762 1.67746234L15.0962322.588439331C15.0730879.457004184 15.1608661.331606695 15.2922238.308539749 15.424046.285627615 15.5491339.37317364 15.5722008.504608787L15.7642448 1.5936318C15.7873891 1.72506695 15.6996109 1.85046444 15.5682531 1.87353138 15.5540105 1.87593096 15.54 1.87724686 15.5260669 1.87724686zM21.6654351 36.6952531C21.5502552 36.6952531 21.4483117 36.6127385 21.4276444 36.4954686L21.2356004 35.4064456C21.2124561 35.2750105 21.3002343 35.149613 21.4315921 35.126546 21.5634142 35.1033243 21.6885021 35.1911025 21.711569 35.3226151L21.903613 36.4115607C21.9267573 36.5429958 21.8389791 36.6683933 21.7076213 36.6914603 21.6933787 36.6940146 21.6793682 36.6952531 21.6654351 36.6952531zM12.6430084 2.64975732C12.5443159 2.64975732 12.4516611 2.58876151 12.415977 2.49068828L12.0376946 1.45159205C11.9921799 1.32611715 12.0568138 1.18748326 12.1822113 1.14181381 12.3072218 1.09637657 12.4463201 1.16077824 12.4918347 1.28625314L12.8700397 2.32534937C12.9157092 2.45082427 12.8509979 2.58945816 12.7256004 2.63512762 12.6983536 2.64503556 12.6704874 2.64975732 12.6430084 2.64975732zM24.7351967 35.8727385C24.6365042 35.8727385 24.5438494 35.8117427 24.5081653 35.7136695L24.1299603 34.6745732C24.0842908 34.5490983 24.1490021 34.4104644 24.2743996 34.364795 24.39941 34.3192029 24.5385084 34.3837594 24.584023 34.5092343L24.9623054 35.5483305C25.0078201 35.6738054 24.9431862 35.8124393 24.8177887 35.8581088 24.7905418 35.8680167 24.7626757 35.8727385 24.7351967 35.8727385zM9.93790586 3.91131799C9.85438494 3.91131799 9.77318619 3.86797071 9.7283682 3.79041004L9.17545816 2.83274477C9.10881172 2.71717782 9.1482887 2.56941004 9.26393305 2.50268619 9.37934519 2.43565272 9.52726778 2.47551674 9.59406904 2.59108368L10.1469791 3.54874895C10.2136255 3.6643159 10.1741485 3.81208368 10.0585042 3.87880753 10.0205753 3.9008682 9.97893096 3.91131799 9.93790586 3.91131799zM27.6154686 34.5297469C27.5319477 34.5297469 27.450749 34.4863996 27.405931 34.4088389L26.8530209 33.4511736C26.7863745 33.3356067 26.8258515 33.1878389 26.9414958 33.1211151 27.0569079 33.0540816 27.2047531 33.0939456 27.2716318 33.2095126L27.8245418 34.1671778C27.8911883 34.2827448 27.8517113 34.4305126 27.7360669 34.4972364 27.6981381 34.5192971 27.6564937 34.5297469 27.6154686 34.5297469zM7.49257741 5.62338075C7.42368619 5.62338075 7.3551046 5.59404393 7.30734519 5.53707322L6.5965272 4.69002092C6.5106841 4.58776778 6.52407531 4.43535565 6.62640586 4.34951255 6.72850418 4.26382427 6.88099372 4.27706067 6.96683682 4.37931381L7.67765481 5.22636611C7.76349791 5.32861925 7.75010669 5.48103138 7.64777615 5.56687448 7.60257113 5.60488075 7.54745816 5.62338075 7.49257741 5.62338075zM30.2183954 32.7069937C30.1495042 32.7069937 30.0809226 32.6776569 30.0331632 32.6206862L29.3224226 31.7736339C29.2365795 31.6713808 29.2499707 31.5189686 29.3523013 31.4331255 29.4543996 31.3475921 29.6068891 31.3606736 29.6927322 31.4629268L30.4033954 32.3099791C30.4892385 32.4122322 30.4758473 32.5646444 30.3735167 32.6504874 30.3283891 32.6884937 30.2731987 32.7069937 30.2183954 32.7069937zM5.38164226 7.73416109C5.32683891 7.73416109 5.27164854 7.71566109 5.22652092 7.67765481L4.37946862 6.96683682C4.27713808 6.88099372 4.26382427 6.728659 4.34958996 6.62632845 4.43543305 6.52399791 4.58792259 6.51083891 4.69002092 6.5965272L5.53707322 7.30734519C5.63940377 7.39318828 5.65271757 7.54552301 5.56695188 7.64785356 5.51911506 7.70474686 5.45053347 7.73416109 5.38164226 7.73416109zM32.4651778 30.4599791C32.4103745 30.4599791 32.3551841 30.4414791 32.3099017 30.4034728L31.4629268 29.6926548C31.360751 29.6068117 31.3474372 29.454477 31.4331255 29.3521464 31.5189686 29.2498159 31.6713033 29.2366569 31.7736339 29.3223452L32.6206088 30.0331632C32.7227845 30.1190063 32.7360983 30.271341 32.65041 30.3736715 32.6025732 30.4306423 32.534069 30.4599791 32.4651778 30.4599791zM3.66934728 10.1793347C3.62839958 10.1793347 3.58683264 10.1688849 3.54874895 10.1469017L2.59108368 9.59399163C2.47543933 9.52726778 2.43596234 9.3795 2.50260879 9.26393305 2.56941004 9.14844351 2.71679079 9.1085795 2.83274477 9.17553556L3.79041004 9.72844561C3.90605439 9.79516946 3.94553138 9.94293724 3.87888494 10.0585042 3.83414435 10.1359874 3.75294561 10.1793347 3.66934728 10.1793347zM34.2877762 27.8568975C34.2468285 27.8568975 34.2051841 27.8464477 34.1671778 27.8244644L33.20959 27.2715544C33.0939456 27.2048305 33.0544686 27.0570628 33.1211151 26.9414958 33.1877615 26.8259289 33.3356067 26.7859874 33.451251 26.8530983L34.4088389 27.4060084C34.5244833 27.4727322 34.5639603 27.6205 34.4973138 27.7360669 34.4524184 27.8135502 34.3712971 27.8568975 34.2877762 27.8568975zM2.40809623 12.8847469C2.38061715 12.8847469 2.35275105 12.8800251 2.32550418 12.8701172L1.28633054 12.4919121C1.16085565 12.4462427 1.09622176 12.3076088 1.14189121 12.1821339 1.18740586 12.056659 1.32642678 11.9922573 1.45151464 12.0376946L2.49068828 12.4158996C2.61616318 12.461569 2.68079707 12.6002029 2.63512762 12.7256778 2.59944351 12.823751 2.5067887 12.8847469 2.40809623 12.8847469zM35.6310774 24.9768577C35.6035983 24.9768577 35.5757322 24.972136 35.5483305 24.962228L34.5092343 24.584023C34.3839142 24.5383536 34.3192803 24.3997197 34.3649498 24.2742448 34.4104644 24.1487699 34.5490983 24.0844456 34.674728 24.1298054L35.7138243 24.5080105C35.8391444 24.5536799 35.9037782 24.6923138 35.8581088 24.8177887 35.8224247 24.9160167 35.7296151 24.9768577 35.6310774 24.9768577zM1.63566318 15.7680377C1.62173013 15.7680377 1.60764226 15.7667992 1.59347699 15.7643222L.504453975 15.5722782C.373018828 15.5490565.285317992 15.4237364.308462343 15.2923787.331606695 15.1610209.456384937 15.0733201.588439331 15.0963096L1.67746234 15.2883536C1.80889749 15.3115753 1.89659833 15.4368954 1.87345397 15.5682531 1.85278661 15.685523 1.7508431 15.7680377 1.63566318 15.7680377zM36.4536695 21.9074059C36.4397364 21.9074059 36.4256485 21.9061674 36.4114833 21.9036904L35.3225377 21.7116464C35.1911025 21.6884247 35.1034017 21.5631046 35.126546 21.4317469 35.1496904 21.3003891 35.2743138 21.2126883 35.406523 21.2356778L36.495546 21.4277218C36.6269812 21.4509435 36.714682 21.5762636 36.6915377 21.7076213 36.6708703 21.8248912 36.5688494 21.9074059 36.4536695 21.9074059zM1.37526987 18.7416611L.269527197 18.7416611C.136079498 18.7416611.0278661088 18.6334477.0278661088 18.5.0278661088 18.3665523.136079498 18.2583389.269527197 18.2583389L1.37526987 18.2583389C1.50871757 18.2583389 1.61693096 18.3665523 1.61693096 18.5 1.61693096 18.6334477 1.50871757 18.7416611 1.37526987 18.7416611zM36.7305502 18.7416611L35.6246527 18.7416611C35.491205 18.7416611 35.3829916 18.6334477 35.3829916 18.5 35.3829916 18.3665523 35.491205 18.2583389 35.6246527 18.2583389L36.7305502 18.2583389C36.8639979 18.2583389 36.9722113 18.3665523 36.9722113 18.5 36.9722113 18.6334477 36.8639979 18.7416611 36.7305502 18.7416611zM.546253138 21.9074059C.431073222 21.9074059.329129707 21.8248912.308462343 21.7076213.285317992 21.5762636.373018828 21.4507887.504453975 21.4277218L1.59347699 21.2356778C1.72537657 21.2126883 1.85038703 21.3002343 1.87345397 21.4317469 1.89659833 21.5631046 1.80889749 21.6885795 1.67746234 21.7116464L.588439331 21.9036904C.574196653 21.9061674.560108787 21.9074059.546253138 21.9074059zM35.364182 15.7680377C35.2490021 15.7680377 35.1470586 15.685523 35.1263912 15.5682531 35.1032469 15.4368954 35.1909477 15.3114205 35.3223828 15.2883536L36.4114059 15.0963096C36.5430732 15.0733201 36.6683159 15.1608661 36.6913828 15.2923787 36.7145272 15.4237364 36.6268264 15.5492113 36.4953912 15.5722782L35.4064456 15.7643222C35.3922029 15.7667992 35.3781151 15.7680377 35.364182 15.7680377zM1.36884519 24.9768577C1.27015272 24.9768577 1.17749791 24.9158619 1.14181381 24.8177887 1.09614435 24.6923138 1.16085565 24.5536799 1.28625314 24.5080105L2.32542678 24.1298054C2.45043724 24.0843682 2.58953556 24.1488473 2.63505021 24.2742448 2.68071967 24.3997197 2.61600837 24.5383536 2.49061088 24.584023L1.45143724 24.962228C1.42426778 24.9722134 1.39640167 24.9768577 1.36884519 24.9768577zM34.5919812 12.8847469C34.4932887 12.8847469 34.4006339 12.823751 34.3649498 12.7256778 34.3192803 12.6002029 34.3839916 12.461569 34.5092343 12.4158996L35.5483305 12.0376946C35.6740377 11.9922573 35.8125167 12.0567364 35.8581088 12.1821339 35.9037782 12.3076088 35.8390669 12.4462427 35.7138243 12.4919121L34.674728 12.8701172C34.647249 12.8800251 34.6194603 12.8847469 34.5919812 12.8847469zM2.71214644 27.8568975C2.62862552 27.8568975 2.54742678 27.8135502 2.50260879 27.7359895 2.43596234 27.6204226 2.47543933 27.4726548 2.59108368 27.405931L3.54874895 26.8530209C3.66447071 26.7859874 3.81200628 26.8258515 3.87888494 26.9414184 3.94553138 27.0569854 3.90605439 27.2047531 3.79041004 27.271477L2.83274477 27.824387C2.79466109 27.8464477 2.75317155 27.8568975 2.71214644 27.8568975zM33.3307301 10.1793347C33.2472092 10.1793347 33.1660105 10.1359874 33.1211925 10.0584268 33.054546 9.94285983 33.094023 9.79509205 33.2096674 9.7283682L34.1672552 9.17545816C34.2826674 9.10850209 34.4305126 9.14836611 34.4973912 9.26385565 34.5640377 9.37942259 34.5245607 9.52719038 34.4089163 9.59391423L33.4513285 10.1468243C33.4133222 10.1688849 33.3716004 10.1793347 33.3307301 10.1793347zM4.53474477 30.4599791C4.46585356 30.4599791 4.39727197 30.4306423 4.34951255 30.3736715 4.26366946 30.2714184 4.27706067 30.1190063 4.37939121 30.0331632L5.22644351 29.3223452C5.32854184 29.2366569 5.48103138 29.2498933 5.56687448 29.3521464 5.65271757 29.4543996 5.63932636 29.6068117 5.53699582 29.6926548L4.68994351 30.4034728C4.64473849 30.4414791 4.58962552 30.4599791 4.53474477 30.4599791zM31.6184351 7.73416109C31.5495439 7.73416109 31.4809623 7.70482427 31.4332029 7.64785356 31.3473598 7.54560042 31.360751 7.39326569 31.4630042 7.30734519L32.3099791 6.5965272C32.4123096 6.51083891 32.5647218 6.52407531 32.6504874 6.62632845 32.7363305 6.72858159 32.7229393 6.88091632 32.6206862 6.96683682L31.7737113 7.67765481C31.7283515 7.71558368 31.6733159 7.73416109 31.6184351 7.73416109zM6.7815272 32.7069937C6.72672385 32.7069937 6.67153347 32.6884937 6.62640586 32.6504874 6.52407531 32.5646444 6.51076151 32.4123096 6.5965272 32.3099791L7.30734519 31.4629268C7.39326569 31.3606736 7.54575523 31.3474372 7.64777615 31.4331255 7.75010669 31.5189686 7.7634205 31.6713033 7.67765481 31.7736339L6.96683682 32.6206862C6.919 32.6776569 6.85041841 32.7069937 6.7815272 32.7069937zM29.5074226 5.62338075C29.4526192 5.62338075 29.3974289 5.60488075 29.3523013 5.56687448 29.2499707 5.48103138 29.2366569 5.32869665 29.3224226 5.22636611L30.0331632 4.37931381C30.1190063 4.27706067 30.2715732 4.26382427 30.3735941 4.34951255 30.4759247 4.43535565 30.4892385 4.58776778 30.4034728 4.69002092L29.6928096 5.53707322C29.6449728 5.59404393 29.5763912 5.62338075 29.5074226 5.62338075zM9.38453138 34.5297469C9.34358368 34.5297469 9.30201674 34.5192971 9.26393305 34.4973138 9.1482887 34.43059 9.10881172 34.2828222 9.17545816 34.1672552L9.7283682 33.20959C9.79516946 33.094023 9.94255021 33.054159 10.0585042 33.1211925 10.1741485 33.1879163 10.2136255 33.3356841 10.1469791 33.451251L9.59406904 34.4089163C9.54925105 34.4863996 9.4680523 34.5297469 9.38453138 34.5297469zM27.0620941 3.91131799C27.0211464 3.91131799 26.9795795 3.9008682 26.9414958 3.87888494 26.8258515 3.81216109 26.7863745 3.66439331 26.8530209 3.54882636L27.405931 2.59116109C27.4727322 2.47559414 27.620113 2.43565272 27.7360669 2.5027636 27.8517113 2.56948745 27.8911883 2.71725523 27.8245418 2.83282218L27.2716318 3.79048745C27.2268138 3.86797071 27.1456151 3.91131799 27.0620941 3.91131799zM12.2648808 35.8727385C12.2374017 35.8727385 12.2095356 35.8680167 12.1822887 35.8581088 12.0568138 35.8124393 11.9921799 35.6738054 12.037772 35.5483305L12.4160544 34.5092343C12.4617238 34.383682 12.6004351 34.3191255 12.7256778 34.364795 12.8511527 34.4104644 12.9157866 34.5490983 12.8701172 34.6745732L12.4919121 35.7136695C12.456228 35.8118201 12.3634958 35.8727385 12.2648808 35.8727385zM24.3569916 2.64975732C24.3295126 2.64975732 24.3016464 2.64503556 24.2743996 2.63512762 24.1489247 2.58945816 24.0842908 2.45082427 24.1299603 2.32534937L24.5081653 1.28625314C24.5536799 1.16070084 24.6927008 1.09637657 24.8177887 1.14181381 24.9432636 1.18748326 25.0078975 1.32611715 24.9623054 1.45159205L24.584023 2.49068828C24.5484937 2.58883891 24.4556841 2.64975732 24.3569916 2.64975732zM15.3345649 36.6952531C15.3206318 36.6952531 15.3065439 36.6940146 15.2923787 36.6915377 15.1610209 36.6683159 15.0732427 36.5430732 15.096387 36.4116381L15.288431 35.3226925C15.3115753 35.1912573 15.4363536 35.1034791 15.5684079 35.1266234 15.6997657 35.1498452 15.7875439 35.2750879 15.7643996 35.406523L15.5723556 36.495546C15.5516109 36.6126611 15.4497448 36.6952531 15.3345649 36.6952531zM21.4739331 1.87724686C21.46 1.87724686 21.4459121 1.87600837 21.4317469 1.87353138 21.3003891 1.85030962 21.2126109 1.72506695 21.2357552 1.5936318L21.4277992.504608787C21.4509435.373251046 21.5757218.285782427 21.7077762.308539749 21.8391339.331761506 21.9269121.457004184 21.9037678.588439331L21.7117238 1.67746234C21.6909791 1.79465481 21.589113 1.87724686 21.4739331 1.87724686zM17.1635879 3.46940795C17.0395837 3.46940795 16.9340795 3.37458577 16.9231653 3.24887866L16.6704351.360014644C16.6588243.227031381 16.7571297.109838912 16.890113.0982280335 17.023251.0860753138 17.1402887.185 17.1518222.317905858L17.4045523 3.20676987C17.4161632 3.33975314 17.3178577 3.45694561 17.1848745 3.46855649 17.1777531 3.46909833 17.1705544 3.46940795 17.1635879 3.46940795zM20.0886004 36.9027782C19.9645962 36.9027782 19.8590921 36.8079561 19.8481778 36.682249L19.5954477 33.7933849C19.5838368 33.6604017 19.6821423 33.5432092 19.8151255 33.5315983 19.9490377 33.5194456 20.0651464 33.6183703 20.0768347 33.7512762L20.3295649 36.6401402C20.3411757 36.7731234 20.2428703 36.8903159 20.109887 36.9019268 20.1027657 36.9023912 20.0955669 36.9027782 20.0886004 36.9027782zM14.5320209 3.93353347C14.4252782 3.93353347 14.3276695 3.86232008 14.2987971 3.75441632L13.5481925.953330544C13.5136695.824372385 13.590069.691930962 13.7190272.65740795 13.8479079.622188285 13.9805042.699361925 14.0149498.828242678L14.7655544 3.62932845C14.8000774 3.75828661 14.7236778 3.89072803 14.5947197 3.92525105 14.5738201 3.93090167 14.5526883 3.93353347 14.5320209 3.93353347zM23.2182741 36.3509519C23.1115314 36.3509519 23.0139226 36.2797385 22.9850502 36.1718347L22.234523 33.370749C22.2 33.2417908 22.2763996 33.1093494 22.4053577 33.0748264 22.5347029 33.0398389 22.6666799 33.1167803 22.7012803 33.2456611L23.4518075 36.0467469C23.4863305 36.175705 23.409931 36.3081464 23.2809728 36.3426695 23.259841 36.3483201 23.2389414 36.3509519 23.2182741 36.3509519zM12.0212071 4.84746444C11.9301778 4.84746444 11.8430188 4.79575732 11.8020711 4.70790167L10.5765042 2.07966318C10.5201527 1.95875523 10.5724017 1.81493515 10.6933096 1.75858368 10.8141402 1.70223222 10.9581925 1.75448117 11.0144665 1.87546653L12.2400335 4.50370502C12.2963849 4.62461297 12.244136 4.76843305 12.123228 4.82478452 12.0902531 4.84018828 12.0554205 4.84746444 12.0212071 4.84746444zM26.2046695 35.2640962C26.1136402 35.2640962 26.0264812 35.2123891 25.9855335 35.1245335L24.7600439 32.496295C24.7036925 32.375387 24.7559414 32.2315669 24.8768494 32.1752155 24.9977573 32.118864 25.1417322 32.1711904 25.1980063 32.2920983L26.4234958 34.9203368C26.4798473 35.0412448 26.4275983 35.1850649 26.3066904 35.2414163 26.2736381 35.2568201 26.2388828 35.2640962 26.2046695 35.2640962zM9.70700418 6.18356695C9.63083682 6.18356695 9.55583054 6.14765063 9.50876778 6.08053975L7.84539331 3.70503138C7.76899372 3.5956569 7.79546653 3.4450251 7.9047636 3.36847071 8.0145251 3.29176151 8.16492469 3.31862134 8.24140167 3.427841L9.90477615 5.80334937C9.98117573 5.91272385 9.95470293 6.06335565 9.84540586 6.13991004 9.80314226 6.16940167 9.7547636 6.18356695 9.70700418 6.18356695zM28.9568347 33.6751862C28.8806674 33.6751862 28.8056611 33.6392699 28.7585983 33.572159L27.0953013 31.1966506C27.0189017 31.0872762 27.0453745 30.9366444 27.1546715 30.86009 27.2644331 30.7833808 27.4148326 30.8102406 27.4913096 30.9194603L29.1545293 33.2949686C29.2309289 33.4043431 29.2044561 33.5549749 29.095159 33.6315293 29.0529728 33.6610209 29.0045167 33.6751862 28.9568347 33.6751862zM7.65961925 7.90135774C7.59784937 7.90135774 7.53592469 7.87774895 7.48878452 7.83060879L5.43822594 5.7799728C5.3438682 5.68569247 5.3438682 5.53258368 5.43822594 5.43822594 5.53258368 5.3438682 5.68553766 5.3438682 5.7799728 5.43822594L7.83053138 7.48878452C7.92488912 7.58306485 7.92488912 7.73617364 7.83053138 7.83053138 7.78331381 7.87767155 7.72154393 7.90135774 7.65961925 7.90135774zM31.3909393 31.632523C31.3291695 31.632523 31.2672448 31.6089142 31.2201046 31.5617741L29.169546 29.5112155C29.0751883 29.4169351 29.0751883 29.2638264 29.169546 29.1694686 29.2639038 29.0751109 29.4168577 29.0751109 29.5112929 29.1694686L31.5618515 31.2200272C31.6562092 31.3143075 31.6562092 31.4674163 31.5618515 31.5617741 31.5146339 31.6089142 31.4527866 31.632523 31.3909393 31.632523zM5.94167364 9.94843305C5.89383682 9.94843305 5.84553556 9.93426778 5.80327197 9.90469874L3.427841 8.24140167C3.31854393 8.16492469 3.29207113 8.01421548 3.36847071 7.904841 3.44517992 7.79546653 3.5955795 7.76891632 3.70510879 7.84547071L6.08053975 9.50869038C6.18983682 9.58516736 6.21630962 9.73587657 6.13991004 9.84525105 6.09284728 9.91243933 6.017841 9.94843305 5.94167364 9.94843305zM33.4333703 29.1982636C33.3855335 29.1982636 33.3372322 29.1840983 33.2949686 29.1545293L30.9194603 27.4913096C30.8101632 27.4148326 30.7836904 27.2641234 30.86009 27.154749 30.9367992 27.0455293 31.0871213 27.0188243 31.196728 27.0953787L33.5722364 28.7586757C33.6815335 28.8351527 33.7080063 28.9858619 33.6316067 29.0952364 33.5845439 29.1622699 33.5095377 29.1982636 33.4333703 29.1982636zM4.60564854 12.2627134C4.57143515 12.2627134 4.53675732 12.2554372 4.50370502 12.2399561L1.87554393 11.0144665C1.75448117 10.9581151 1.70223222 10.814295 1.75858368 10.693387 1.81493515 10.5724791 1.95883264 10.5202301 2.07966318 10.5765042L4.70790167 11.8019937C4.82896444 11.8583452 4.88121339 12.0021653 4.82486192 12.1230732 4.78383682 12.2110063 4.69667782 12.2627134 4.60564854 12.2627134zM35.0222803 26.4462531C34.9880669 26.4462531 34.9533117 26.438977 34.920182 26.4234958L32.2920209 25.1980063C32.171113 25.1416548 32.1187866 24.9978347 32.1752155 24.8769268 32.2316444 24.7560188 32.3755418 24.7036925 32.4963724 24.7600439L35.1245335 25.9855335C35.2454414 26.0418849 35.2977678 26.185705 35.2413389 26.306613 35.2004686 26.394546 35.1132322 26.4462531 35.0222803 26.4462531zM3.69194979 14.7739142C3.67135983 14.7739142 3.65030544 14.7712824 3.62925105 14.7655544L.828087866 14.0150272C.699052301 13.9805042.62265272 13.8479854.657253138 13.7191046.691698745 13.5902238.823985356 13.5133598.953175732 13.5482699L3.75433891 14.2987971C3.88337448 14.3333201 3.95977406 14.4658389 3.92517364 14.5947197 3.89622385 14.7026234 3.79853766 14.7739142 3.69194979 14.7739142zM36.1093682 23.46009C36.0887782 23.46009 36.0677238 23.4574582 36.0466695 23.4517301L33.2455063 22.7011255C33.1164707 22.6666025 33.0400711 22.5340837 33.0746715 22.4052029 33.1091172 22.2763222 33.2414038 22.199613 33.3705941 22.2343682L36.1717573 22.9849728C36.3007929 23.0194958 36.3771925 23.1520146 36.3425921 23.2808954 36.3137971 23.388954 36.2160335 23.46009 36.1093682 23.46009zM3.22790167 17.4054812C3.22078033 17.4054812 3.2137364 17.4051715 3.20653766 17.4044749L.31767364 17.1517448C.184767782 17.1401339.0864623431 17.0230188.0980732218 16.8899582.109606695 16.7569749.227186192 16.6582824.359859833 16.6702803L3.24872385 16.9230105C3.38162971 16.9346213 3.47993515 17.0517364 3.46832427 17.1847971 3.45748745 17.310659 3.35198326 17.4054812 3.22790167 17.4054812zM36.6614268 20.3305711C36.6544603 20.3305711 36.6472615 20.3302615 36.6401402 20.3295649L33.7511987 20.0768347C33.6182155 20.0652238 33.5198326 19.9481088 33.5315209 19.8150481 33.5431318 19.6821423 33.659318 19.583682 33.7932301 19.5953703L36.6821715 19.8481004C36.8151548 19.8597113 36.9135377 19.9768264 36.9018494 20.109887 36.8908577 20.2358264 36.7853536 20.3305711 36.6614268 20.3305711zM.338650628 20.3305711C.214646444 20.3305711.109142259 20.235749.0982280335 20.1100418.0866171548 19.9770586.184922594 19.8598661.317828452 19.8482552L3.20669247 19.5955251C3.34176569 19.5839142 3.45694561 19.6823745 3.46847908 19.8152029 3.48008996 19.9481862 3.38178452 20.0653787 3.24887866 20.0769895L.360014644 20.3297197C.3528159 20.3302615.345617155 20.3305711.338650628 20.3305711zM33.7720209 17.4054812C33.6480167 17.4054812 33.5425126 17.310659 33.5315983 17.1849519 33.5199874 17.0519686 33.6182929 16.9347762 33.7512762 16.9231653L36.6402176 16.6704351C36.7739749 16.6578954 36.8902385 16.7572845 36.9019268 16.890113 36.9135377 17.0230962 36.8152322 17.1402887 36.682249 17.1518996L33.7933075 17.4046297C33.7861088 17.4051715 33.77891 17.4054812 33.7720209 17.4054812zM.890554393 23.46009C.783811715 23.46009.686202929 23.388954.657330544 23.2809728.622807531 23.1520146.699207113 23.0195732.828165272 22.9850502L3.62932845 22.2344456C3.75789958 22.1993808 3.89065063 22.2763996 3.92525105 22.4052803 3.95977406 22.5342385 3.88337448 22.6666799 3.75441632 22.7012029L.953253138 23.4518075C.932353556 23.4574582.911144351 23.46009.890554393 23.46009zM33.3080502 14.7739142C33.2013075 14.7739142 33.1036987 14.7027008 33.0748264 14.5947971 33.0403033 14.4658389 33.1167029 14.3333975 33.2456611 14.2988745L36.0468243 13.5483473C36.1756276 13.5134372 36.3081464 13.5903013 36.3427469 13.719182 36.3772699 13.8481402 36.3008703 13.9805816 36.1719121 14.0151046L33.370749 14.7656318C33.349772 14.771205 33.3287176 14.7739142 33.3080502 14.7739142zM1.97764226 26.4462531C1.88661297 26.4462531 1.79945397 26.394546 1.75850628 26.306613 1.70215481 26.185705 1.75440377 26.0418849 1.87546653 25.9855335L4.50370502 24.7600439C4.62407113 24.7036925 4.76835565 24.7560188 4.82478452 24.8769268 4.88121339 24.9978347 4.82888703 25.1416548 4.70782427 25.1980063L2.07958577 26.4234958C2.04668828 26.4388996 2.01185565 26.4462531 1.97764226 26.4462531zM32.3943515 12.2627134C32.3033222 12.2627134 32.2161632 12.2110063 32.1752155 12.1231506 32.118864 12.0022427 32.171113 11.8584226 32.2920209 11.8020711L34.920182 10.5765816C35.04109 10.5203075 35.1849874 10.5725565 35.2413389 10.6934644 35.2976904 10.8143724 35.2454414 10.9581925 35.1245335 11.0145439L32.4963724 12.2400335C32.4633975 12.2554372 32.4286423 12.2627134 32.3943515 12.2627134zM3.56670711 29.1982636C3.49053975 29.1982636 3.41553347 29.1623473 3.36847071 29.0952364 3.29207113 28.9858619 3.31854393 28.8352301 3.427841 28.7586757L5.80327197 27.0953787C5.91303347 27.0186695 6.06343305 27.0455293 6.13991004 27.154749 6.21630962 27.2641234 6.18983682 27.4147552 6.08053975 27.4913096L3.70510879 29.1545293C3.66292259 29.1840209 3.61454393 29.1982636 3.56670711 29.1982636zM31.058249 9.94843305C30.9820816 9.94843305 30.9070753 9.91251674 30.8600126 9.84540586 30.783613 9.73603138 30.8100858 9.58539958 30.9193828 9.50884519L33.2948912 7.84562552C33.4046527 7.76891632 33.5548975 7.79577615 33.6315293 7.90499582 33.7079289 8.01437029 33.6814561 8.16500209 33.572159 8.24155649L31.1966506 9.90477615C31.1544644 9.93419038 31.1060858 9.94843305 31.058249 9.94843305zM5.60913808 31.632523C5.5473682 31.632523 5.48544351 31.6089142 5.43830335 31.5617741 5.34394561 31.4674937 5.34394561 31.3143849 5.43830335 31.2200272L7.48886192 29.1694686C7.58321967 29.0751109 7.73617364 29.0751109 7.83060879 29.1694686 7.92496653 29.263749 7.92496653 29.4168577 7.83060879 29.5112155L5.78005021 31.5617741C5.73283264 31.6089142 5.67090795 31.632523 5.60913808 31.632523zM29.3404582 7.90135774C29.2786883 7.90135774 29.2167636 7.87774895 29.1696234 7.83060879 29.0752657 7.73632845 29.0752657 7.58321967 29.1696234 7.48886192L31.220182 5.43830335C31.3145397 5.34394561 31.4674937 5.34394561 31.5619289 5.43830335 31.6562866 5.53258368 31.6562866 5.68569247 31.5619289 5.78005021L29.5113703 7.83060879C29.4639979 7.87767155 29.402228 7.90135774 29.3404582 7.90135774zM8.04316527 33.6751862C7.99532845 33.6751862 7.9470272 33.6610209 7.9047636 33.6314519 7.79546653 33.5549749 7.76899372 33.4042657 7.84539331 33.2948912L9.50876778 30.9193828C9.58547699 30.8101632 9.73587657 30.7834582 9.84540586 30.8600126 9.95470293 30.9364895 9.98117573 31.0871987 9.90477615 31.1965732L8.24140167 33.5720816C8.19426151 33.6392699 8.11941004 33.6751862 8.04316527 33.6751862zM27.2929958 6.18356695C27.245159 6.18356695 27.1968577 6.16940167 27.1545941 6.13983264 27.0452971 6.06335565 27.0188243 5.91264644 27.0952238 5.80327197L28.7585209 3.4277636C28.8351527 3.31838912 28.9857845 3.29183891 29.095159 3.36839331 29.2044561 3.44487029 29.2309289 3.5955795 29.1545293 3.70495397L27.4913096 6.08046234C27.4441695 6.14765063 27.3692406 6.18356695 27.2929958 6.18356695zM10.7953305 35.2640962C10.7611172 35.2640962 10.7263619 35.2568201 10.6932322 35.2413389 10.5723243 35.1849874 10.5199979 35.0411674 10.5764268 34.9202594L11.8019937 32.2920209C11.8582678 32.171113 12.0023201 32.1187866 12.1231506 32.1751381 12.2440586 32.2314895 12.2963849 32.3753096 12.2399561 32.4962176L11.0143891 35.1244561C10.9735188 35.2123891 10.8863598 35.2640962 10.7953305 35.2640962zM24.9789477 4.84746444C24.9447343 4.84746444 24.9099791 4.84018828 24.8768494 4.82470711 24.7559414 4.76835565 24.7036151 4.62453556 24.7600439 4.50362762L25.9855335 1.87538912C26.0418075 1.75440377 26.1858598 1.70215481 26.3066904 1.75850628 26.4275983 1.81485774 26.4799247 1.95867782 26.4234958 2.07958577L25.1980063 4.70782427C25.1569812 4.79583473 25.0698222 4.84746444 24.9789477 4.84746444zM13.7817259 36.3509519C13.761136 36.3509519 13.7400042 36.3483201 13.7190272 36.3425921 13.5899916 36.308069 13.5135921 36.1755502 13.5481925 36.0466695L14.2987971 33.2455837C14.3333201 33.1168577 14.4659937 33.0398389 14.5947197 33.074749 14.7237552 33.109272 14.8001548 33.2417908 14.7655544 33.3706715L14.0149498 36.1717573C13.9860774 36.2798159 13.8883912 36.3509519 13.7817259 36.3509519zM22.4680565 3.93353347C22.4474665 3.93353347 22.4264121 3.93090167 22.4053577 3.92517364 22.2763222 3.89065063 22.1999226 3.7581318 22.234523 3.62925105L22.9850502.828165272C23.0195732.699284519 23.1515502.622188285 23.2809728.657330544 23.4100084.691853556 23.4864079.824372385 23.4518075.953253138L22.7012803 3.75433891C22.6724079 3.86224268 22.5747218 3.93353347 22.4680565 3.93353347zM16.9113222 36.9027782C16.9043556 36.9027782 16.8971569 36.9024686 16.8900356 36.901772 16.7570523 36.8901611 16.6586695 36.7729686 16.6703577 36.6399854L16.9230879 33.7511213C16.9346213 33.6182155 17.0518138 33.5192908 17.1847971 33.5314435 17.3177803 33.5430544 17.4161632 33.6601695 17.4044749 33.7932301L17.1517448 36.6820941C17.1407531 36.8079561 17.0353264 36.9027782 16.9113222 36.9027782zM19.8363347 3.46940795C19.8293682 3.46940795 19.8221695 3.46909833 19.8150481 3.46840167 19.6820649 3.45679079 19.583682 3.33967573 19.5953703 3.20661506L19.8481004.317751046C19.8596339.184845188 19.9755879.0858430962 20.1098096.0980732218 20.2427929.1096841 20.3411757.226799163 20.3294874.359859833L20.0767573 3.24872385C20.0658431 3.37466318 19.9604163 3.46940795 19.8363347 3.46940795z"/>
          <polygon points="20.894 20.894 31.572 5.428 16.106 16.106 5.428 31.572"/>
        </g>
        <polygon fill="#CCC" points="22.381 22.381 33 7 7 33"/>
        <polygon fill="#FF525D" points="21.953 23 33 7 17 18.047"/>
        <polygon fill="#EF4152" points="22.381 23 33 7 20 20.523"/>
      </g>
      <g fill-rule="nonzero" transform="translate(14 12)">
        <path fill="#73A1FB" d="M12.7272727,20.4546666 C12.7272727,24.7155441 16.1937891,28.1818182 20.4548281,28.1818182 C24.7156249,28.1818182 28.1818182,24.7154634 28.1818182,20.4546666 C28.1818182,16.1937891 24.7155441,12.7272727 20.4548281,12.7272727 C16.1937891,12.7272727 12.7272727,16.1937083 12.7272727,20.4546666 Z"/>
        <path fill="#DA143A" d="M37.2301269,10.3436892 C37.2879185,10.2391446 37.2869101,10.1107566 37.2271016,10.0072487 C35.4983942,7.01429254 33.0383315,4.50721724 30.1127552,2.75723259 C27.0975824,0.953420664 23.6492437,0 20.1409413,0 C14.0694045,0 8.41109752,2.80101211 4.61670706,7.68478107 C4.53300613,7.79243563 4.52206838,7.94163688 4.58909118,8.06093407 L10.1794445,18.014515 C10.2380119,18.1189001 10.3461482,18.1818182 10.4612661,18.1818182 C10.4758498,18.1818182 10.4906661,18.1807815 10.505405,18.1787082 C10.6364252,18.160367 10.7435531,18.0623615 10.7766766,17.9307837 C11.8789845,13.5401524 15.7297704,10.4736721 20.1409413,10.4736721 C20.4146953,10.4736721 20.6973702,10.4865109 20.9815189,10.511391 C20.9907501,10.512348 21.0001364,10.5127467 21.0093675,10.5127467 L36.9471417,10.5127467 C37.0642765,10.5129062 37.1723352,10.4483932 37.2301269,10.3436892 Z"/>
        <path fill="#78B86D" d="M22.6594295,29.6317263 C22.5790728,29.525545 22.4441168,29.4799374 22.3168725,29.5158563 C21.4809933,29.7535827 20.6148068,29.8741001 19.7421424,29.8741001 C16.0343984,29.8741001 12.6170798,27.6528785 11.0360889,24.2154556 C11.0322331,24.2070273 11.0279145,24.1987565 11.0233645,24.1905645 L3.09542911,10.1652584 C3.03766792,10.0627793 2.93078273,10 2.81518323,10 C2.81464341,10 2.81402647,10 2.81348664,10 C2.6972702,10.0006302 2.59015366,10.0648273 2.53324076,10.1681729 C0.876057568,13.1717333 0,16.5905666 0,20.0550074 C0,24.9150865 1.71656386,29.6096708 4.83350882,33.2738711 C7.91952957,36.9016011 12.1680232,39.2890264 16.7967073,39.9964554 C16.8127478,39.998976 16.8287883,40 16.8447516,40 C16.9590401,40 17.0665423,39.9378509 17.1249204,39.8347416 L22.6839529,29.9998162 C22.7496573,29.8833161 22.7399404,29.7379076 22.6594295,29.6317263 Z"/>
        <path fill="#F1CB30" d="M38.3267994,12.7272727 L27.1101615,12.7272727 C26.9775738,12.7272727 26.8581982,12.8072023 26.808303,12.9294203 C26.7581746,13.0516382 26.787319,13.1920572 26.8819024,13.284379 C28.7586476,15.1178807 29.7922253,17.565028 29.7922253,20.17521 C29.7922253,22.1512219 29.1939486,24.0528031 28.0619016,25.6746307 C28.0566945,25.6821435 28.051876,25.6898111 28.0472906,25.6977886 L20.0436889,39.5123674 C19.9850892,39.6135186 19.9854778,39.738215 20.0446215,39.8391339 C20.1032212,39.938891 20.2104727,40 20.3261955,40 C20.3273612,40 20.3286824,40 20.3298482,40 C25.59675,39.9415244 30.5390996,37.8532858 34.2464252,34.1203715 C37.9566264,30.3842817 40,25.4318213 40,20.1752875 C40,17.6767901 39.5392073,15.2404084 38.6303677,12.9336027 C38.5813274,12.8090612 38.4609415,12.7272727 38.3267994,12.7272727 Z"/>
      </g>
      <g fill-rule="nonzero" transform="translate(87 12)">
        <path fill="#2179A6" d="M20.0007781,39.0909091 C30.543879,39.0909091 39.0909091,30.3393799 39.0909091,19.545144 C39.0909091,8.75183975 30.5435678,0 20.0007781,0 C9.45643225,0 0.909090909,8.75183975 0.909090909,19.545144 C0.909090909,30.3393799 9.45736601,39.0909091 20.0007781,39.0909091 Z"/>
        <path fill="#195D80" d="M38.9217264,22.2029552 C38.8216553,22.2782886 38.7200206,22.3530045 38.6102551,22.4218543 C38.7800632,21.9683103 38.9339225,21.3841678 39.0615132,20.7117247 C39.0799638,20.3628447 39.0909091,20.0118035 39.0909091,19.6579836 C39.0909091,15.6001694 37.8609726,11.8341177 35.7616684,8.71735336 C33.8612556,6.49810598 31.2734793,4.59377684 27.844793,3.63636364 C31.5346023,6.09951828 32.9130818,8.19218088 33.7852641,10.0542122 C32.7983128,9.03258034 31.1093001,7.96679821 29.969115,7.87818886 C31.6793927,9.16595748 34.5414264,12.986348 34.236835,18.7743601 C33.7980857,17.8419551 32.9953278,16.3825251 32.4252352,15.8718636 C33.0391089,21.5564466 32.5015394,22.7769092 32.1287745,24.286973 C32.0468413,23.5929179 31.8001035,23.0717591 31.6578149,22.7549884 C31.6578149,22.7549884 31.5921432,24.5314978 30.4522708,27.0625759 C29.588532,28.9795636 28.6972737,29.5717334 28.302931,29.504736 C28.1953546,29.4976349 28.1381264,29.4510147 28.1390646,29.4466923 C28.1672096,29.1984626 28.1925401,28.9385007 28.1274939,28.7727055 C28.1274939,28.7727055 27.7631725,28.8999078 27.5280054,29.2345856 C27.4332506,29.3695064 27.3106635,29.5010311 27.1496115,29.6248372 C27.122092,29.6464493 27.4097964,29.2515665 27.3882186,29.2697823 C27.2465554,29.3867961 27.0948851,29.5229519 26.941964,29.6834985 C26.3828167,30.2710371 25.8790212,30.9227944 25.6163345,30.7381658 C25.8608833,30.6628324 26.056022,30.3476055 26.108872,30.0388621 C25.889341,30.19416 25.3317573,30.6162122 24.0808685,30.8042369 C23.5692549,30.8814228 21.3930211,31.2818629 18.498777,29.8165669 C18.920952,29.7677854 19.5523382,29.6171186 20.0336176,29.9051762 C19.5523382,29.3732114 18.3893243,29.4837415 17.5556068,29.2169872 C16.8291532,28.9841947 15.8809794,27.9520656 15.3362173,27.4309068 C17.5637376,27.9832487 19.9291684,27.584661 21.2967026,26.6380538 C22.6786221,25.6809493 23.4973288,24.9822631 24.2319133,25.1477495 C24.9652469,25.313236 25.4540317,24.5682382 24.8826882,23.9059837 C24.3135338,23.2434204 22.9325525,22.3526958 21.0534048,22.8297043 C19.6148826,23.1946389 18.3886988,24.3638501 16.3682006,23.5509288 C16.2459262,23.5021473 16.1198992,23.4453386 15.9904322,23.3808112 C15.8612779,23.3156664 16.4129199,23.457997 16.2768857,23.3771063 C15.8884847,23.2319969 15.182358,22.9044202 15.0072336,22.7799966 C14.9787758,22.7583846 15.2996288,22.8389666 15.2661676,22.817972 C13.3482422,21.6691379 13.4739566,20.7503176 13.4739566,20.1813036 C13.4739566,19.7262159 13.7469631,19.1108903 14.259202,18.822524 C14.5356485,18.9222481 14.707333,19.0136362 14.707333,19.0136362 C14.707333,19.0136362 14.5797423,18.8148054 14.4987472,18.7184775 C14.5175106,18.7116851 14.5368994,18.7064365 14.5562881,18.7008791 C14.7820736,18.7783737 15.5851442,19.1111991 16.0138864,19.4576091 C16.5233108,18.4937123 16.1424152,16.8975091 16.0901906,16.7987112 C16.0901906,16.7968587 16.0914415,16.79655 16.0914415,16.79408 C16.1993306,16.3041043 19.0835676,14.7736634 19.2993459,14.6121906 C19.5979956,14.3883517 19.9022743,14.0431766 20.0927221,13.6458239 C20.2309454,13.3920368 20.330391,13.030807 20.3034969,12.5102657 C20.2837954,12.134525 20.0633262,11.90482 16.9873906,11.9310631 C16.1467933,11.9375468 15.5995294,11.4423224 15.2686693,10.9702538 C15.2020595,10.8674422 15.1423296,10.7698793 15.0891668,10.6815787 C15.0166152,10.5503628 14.9675178,10.4336578 14.9303039,10.339491 C15.2977525,8.98935627 16.5226854,7.07020745 17.6290966,6.48513876 C15.5851442,5.83492521 13.0833665,7.68738546 12.3722362,8.68184787 C12.3700472,8.68524405 12.3672327,8.68802274 12.3653563,8.69080143 C10.5675164,8.23849238 9.04174469,8.34809628 7.76583808,8.76212115 C6.8186025,8.29777111 6.21755042,7.32121582 5.87699593,6.41752396 C5.00856635,7.36196994 4.23020078,8.39224658 3.55972436,9.49754787 C3.48216925,10.1236794 3.44088992,10.8631198 3.50093258,11.7167952 C3.49999442,11.8270166 3.51719414,11.9338418 3.51375419,12.0326397 C3.02997293,12.707244 2.71443623,13.2876815 2.5915364,13.5738866 C2.00142959,14.7390841 1.39693756,16.5307219 0.909090909,19.313426 C0.909090909,19.313426 1.23682378,18.2646247 1.89197681,17.076889 C1.4228935,18.5298353 1.05481946,20.7694597 1.23682378,24.0936997 C1.24776906,24.1409374 1.2580889,24.1894101 1.26934689,24.2363391 C1.307499,23.9161722 1.41319911,23.1606772 1.62053394,22.2048077 C1.74562282,24.5253229 2.28975946,27.3781117 4.07509056,30.4714116 C4.24145877,30.7603953 4.44191371,31.0959994 4.68083348,31.4664914 C8.18676217,36.100112 13.7031819,39.0909091 19.9107178,39.0909091 C29.6510765,39.0915266 37.690539,31.731702 38.9217264,22.2029552 Z"/>
        <path fill="#E78244" d="M34.4713968,31.4188254 C35.5726255,29.2964964 37.0671948,28.0538149 37.8763884,26.586071 C38.950102,24.6335533 40.978714,19.1440288 39.4491255,14.7164492 C40.1501348,17.4886809 39.9312648,20.3052384 37.695039,21.7199162 C38.4182479,19.7667743 38.8716215,15.4815364 38.1262128,11.6208268 C37.6412595,9.11205234 36.1079189,6.86423783 35.1083084,6.16345411 C36.0285004,6.87016874 36.7689063,9.40110611 36.74827,10.5626278 C34.8228395,7.24256739 31.6808045,4.06828247 26.9313259,2.72727273 C30.6205358,5.2176302 31.9987913,7.33340394 32.8708319,9.21599932 C31.8846663,8.1830847 30.1956154,7.10553218 29.0553028,7.01594424 C30.7653027,8.31793484 33.6274967,12.1805174 33.3226421,18.0324516 C32.8842768,17.0897492 32.0810239,15.6142015 31.5113366,15.0979003 C32.1251106,20.8455754 31.5876285,22.0795166 31.2149241,23.6059453 C31.1330042,22.9042251 30.8863065,22.3773107 30.744041,22.0570416 C30.744041,22.0570416 30.67838,23.8531706 29.5383801,26.4122017 C28.6750943,28.3503604 27.7839808,28.94907 27.3893895,28.8813328 C27.2824559,28.8741533 27.2249244,28.8270181 27.2258624,28.822648 C27.2540028,28.5716769 27.2793292,28.308844 27.2142935,28.1412178 C27.2142935,28.1412178 26.8500314,28.2698248 26.6149025,28.6081988 C26.520163,28.7446097 26.3979085,28.8775869 26.2365701,29.0027603 C26.209055,29.0246111 26.4967127,28.6253672 26.475451,28.6437843 C26.3331855,28.7620903 26.1821652,28.8997498 26.0289563,29.0620694 C25.4698998,29.6560968 24.9658735,30.315052 24.7038549,30.1283844 C24.9480512,30.0522191 25.1431582,29.7335108 25.1959996,29.4213577 C24.9761916,29.5783707 24.4186985,30.005084 23.1686383,30.1951852 C22.6567952,30.2732235 20.4809149,30.6780861 17.5871411,29.1966074 C18.0092475,29.1472872 18.640531,28.9949565 19.1217323,29.2861954 C18.640531,28.7483556 17.4777061,28.8601064 16.6441241,28.5904061 C15.9177884,28.3550426 14.9697687,27.3115148 14.4250952,26.7846004 C16.6522536,27.3430423 19.0173001,26.9400526 20.3846121,25.9829912 C21.766307,25.0153166 22.5851934,24.3089141 23.3193459,24.4762282 C24.0522476,24.6435422 24.5412657,23.8900046 23.9700151,23.2207484 C23.4012658,22.5508678 22.0205089,21.6503061 20.1413537,22.1325827 C18.7030653,22.5015476 17.4770807,23.6836714 15.4569108,22.8617723 C15.3346563,22.8124521 15.2086497,22.7550159 15.0792037,22.6897759 C14.9500704,22.6239116 15.5016228,22.7678142 15.3656107,22.685718 C14.9772729,22.5393181 14.2712608,22.2081237 14.0961648,22.082326 C14.0677117,22.0604753 14.3885126,22.1419472 14.3550568,22.1207208 C12.4374431,20.9591991 12.563137,20.0302315 12.563137,19.4546212 C12.563137,18.9945075 12.8360991,18.3723863 13.3482549,18.0808353 C13.6246564,18.1816608 13.796313,18.2740581 13.796313,18.2740581 C13.796313,18.2740581 13.668743,18.0730315 13.5877611,17.9756398 C13.6065214,17.9687724 13.6259071,17.9634658 13.6452927,17.957847 C13.8710414,18.0361975 14.6739816,18.3726985 15.1026541,18.7229343 C15.6119958,17.7483923 15.231162,16.1345607 15.1789459,16.0346717 C15.1789459,16.0327988 15.1801966,16.0324867 15.1801966,16.0299894 C15.2880682,15.5346025 18.1718366,13.9872595 18.3875798,13.8240035 C18.686181,13.5976925 18.9904103,13.2487053 19.1808272,12.8469642 C19.319028,12.5903744 19.4184575,12.2251553 19.3915677,11.6988651 C19.3718694,11.3189748 19.1517488,11.0867329 16.0763128,11.1132659 C15.2358521,11.1198211 14.6886772,10.6191275 14.3578708,10.1418454 C14.2912718,10.0378984 14.2315516,9.93925807 14.1783974,9.84998228 C14.1058577,9.71731721 14.0567682,9.59932333 14.0195604,9.50411664 C14.3869493,8.13907111 15.6116831,6.19872741 16.7179146,5.60719727 C14.6739816,4.94949068 12.1726104,6.82240931 11.4615956,7.82754231 C11.4594069,7.83097599 11.4565929,7.83409752 11.4547168,7.83659475 C9.65716894,7.37929045 8.13164517,7.4901048 6.85594585,7.90870212 C5.29383952,7.13456242 4.66849671,4.94949068 4.6106525,4.01459213 C3.73048251,4.63733758 2.91972556,7.14923361 2.81279194,7.65023935 C2.65645624,8.44217177 2.49605581,9.52347013 2.59142059,10.8963195 C2.59048257,11.0077581 2.6076795,11.1157631 2.60424011,11.2156521 C2.12053745,11.8977066 1.80505201,12.4845545 1.68217215,12.7739204 C1.09216121,13.9519862 0.487767388,15.7634107 0,18.5768466 C0,18.5768466 0.32767963,17.5164625 0.982726219,16.3156095 C0.499648901,17.8283035 0.122254518,20.1810014 0.343938543,23.7098923 C0.352693342,23.5934592 0.453686205,22.7019499 0.711327441,21.5004726 C0.836396002,23.8466154 1.38044424,26.73091 3.16548528,29.858372 C4.52560588,32.243846 8.11038351,37.7851879 17.1050018,39.858821 C16.1175855,39.56727 15.5038115,38.9832316 15.5038115,38.9832316 C15.5038115,38.9832316 18.8631531,40.0885657 21.3151222,39.9942955 C20.5475139,39.8585089 20.3943049,39.4783064 20.3943049,39.4783064 C20.3943049,39.4783064 29.1112709,39.983058 32.1254233,35.7733612 C31.095171,37.0073024 28.4859281,37.3556653 27.4988245,37.3665906 C29.0012106,35.9531614 32.3224063,35.9862496 35.9200034,32.3612156 C37.8935853,30.372176 38.1065145,28.8591699 38.3219451,27.4448042 C37.9917641,29.2971207 36.26957,30.4080736 34.4713968,31.4188254 Z"/>
        <path fill="#144F66" d="M19.8389971,12.5028908 C19.9947076,12.1295273 20.1717626,11.2523238 19.6615922,11.0683185 C19.2361003,10.9682865 18.875342,10.8960226 18.1818182,10.9110776 C18.4103101,10.9669483 19.0663934,11.0937447 19.2368001,11.3938406 C19.5618675,11.9679372 18.7938127,13.3436278 18.6821911,13.6363636 C19.0321021,13.6366981 19.6857361,12.8702323 19.8389971,12.5028908 Z"/>
      </g>
      <path fill="#26A6D1" fill-rule="nonzero" d="M13.9059697,9.86425428 C12.3464751,11.600847 11.566585,13.7381693 11.3067644,16.0090192 C15.985391,16.0090192 20.5341074,16.0090192 25.0828238,16.0090192 C25.0828238,15.6082896 25.0828238,15.3410877 25.0828238,14.9403581 C24.9529135,13.4709673 24.6929501,12.0015766 23.9132028,10.6657135 C22.8734921,8.92912074 21.1839444,7.99413394 19.2345761,7.72693197 C16.3754075,7.19267476 13.6461491,7.72693197 11.0469438,8.79559312 C7.14806443,10.2649839 3.8990221,12.6695082 1.29967403,15.8754916 C0.909800376,16.4097488 0.519926717,17.0776804 0,17.745612 C0,17.3448824 0,17.2113547 0.1299103,16.9441528 C0.649694259,13.2039121 1.94936829,9.59719904 4.4186633,6.65827081 C7.27797473,3.18523211 10.9168907,1.0479098 15.3356968,0.246450619 C19.6244498,-0.421480945 23.6533822,0.246450619 27.4223512,2.51730055 C30.9313569,4.52109524 33.2707416,7.59340435 34.700326,11.4673194 C35.4800733,13.6046417 35.8699469,16.009166 36,18.2800159 C36,19.7494066 36,21.2187974 36,22.6881881 C36,22.8217158 36,22.9553901 36,23.2224453 C27.8123677,23.2224453 19.7546456,23.2224453 11.5668705,23.2224453 C11.5668705,25.22624 12.2167075,27.0963604 13.5163815,28.5657511 C15.0758762,30.3023438 17.1552975,31.103803 19.2347189,31.5045326 C23.9133455,32.1724642 28.2022413,31.371005 32.231031,28.9664807 C32.3609413,28.9664807 32.4909943,28.8329531 32.4909943,28.8329531 C32.4909943,28.8329531 32.4909943,28.8329531 32.6209046,28.8329531 C32.6209046,28.9664807 32.6209046,29.1001551 32.6209046,29.2336827 C32.6209046,31.7717346 32.6209046,34.3097865 32.6209046,36.8478384 C32.6209046,37.1150404 32.4909943,37.248568 32.231031,37.3820956 C29.3718623,38.8514863 26.2527303,39.7866199 23.0036879,39.9201475 C20.9242666,40.0536751 18.8448452,40.0536751 16.8954769,39.6529455 C10.7872659,38.3170824 5.84853316,33.7753825 4.67891218,27.2297413 C3.37923815,19.7491132 6.88824383,12.9364167 13.7763449,9.86410755 C13.7760594,9.86425428 13.7760594,9.86425428 13.9059697,9.86425428 Z" transform="translate(165 12)"/>
    </g>
    <path fill="#979797" fill-rule="nonzero" d="M164.949026 543.113864L164.550956 609.503151 168.550884 609.527134 163.997002 618.499991 159.551046 609.473171 163.550974 609.497155 163.949044 543.107868 159.949116 543.083885 164.502998 534.111028 168.948954 543.137848 164.949026 543.113864zM391 609.5L391 414.5 392 414.5 392 609.5 396 609.5 391.5 618.5 387 609.5 391 609.5z"/>
    <g transform="translate(45 618)">
      <use fill="#ED58FF" fill-opacity=".2" stroke="#E300FF" stroke-dasharray="4 2" stroke-linejoin="bevel" stroke-width="6" mask="url(#architectures-h)" xlink:href="#architectures-b"/>
      <text fill="#160051" font-family="ArialMT, Arial" font-size="11">
        <tspan x="77" y="77">Database Engine</tspan>
      </text>
      <path fill="#D8D8D8" stroke="#979797" d="M67.4899671 35.5121854C67.1401824 38.9988885 57.6880149 41.5 46 41.5 34.3119851 41.5 24.8598176 38.9988885 24.5100329 35.5121854L24.5 35.5121854 24.5 26.8875345 25.3319418 27.626082C28.3054105 30.2657474 36.5803973 32.1170596 46 32.1170596 55.4196027 32.1170596 63.6945895 30.2657474 66.6680582 27.626082L67.5 26.8875345 67.5 35.5121854 67.4899671 35.5121854zM24.5087297 25.3355209L24.5 25.3355209 24.5 15.8656736 25.3373133 16.6309205C28.3102707 19.3479993 36.5824301 21.2532814 46 21.2532814 55.4175699 21.2532814 63.6897293 19.3479993 66.6626867 16.6309205L67.5 15.8656736 67.5 25.3355209 67.4912703 25.3355209C67.1643627 28.9167499 57.6969159 31.5 46 31.5 34.3030841 31.5 24.8356373 28.9167499 24.5087297 25.3355209zM24.5100329 45.5121854L24.5 45.5121854 24.5 36.8875345 25.3319418 37.626082C28.3054105 40.2657474 36.5803973 42.1170596 46 42.1170596 55.4196027 42.1170596 63.6945895 40.2657474 66.6680582 37.626082L67.5 36.8875345 67.5 45.5121854 67.4899671 45.5121854C67.1401824 48.9988885 57.6880149 51.5 46 51.5 34.3119851 51.5 24.8598176 48.9988885 24.5100329 45.5121854zM67.4912703 56.3355209C67.1643627 59.9167499 57.6969159 62.5 46 62.5 34.3030841 62.5 24.8356373 59.9167499 24.5087297 56.3355209L24.5 56.3355209 24.5 46.8656736 25.3373133 47.6309205C28.3102707 50.3479993 36.5824301 52.2532814 46 52.2532814 55.4175699 52.2532814 63.6897293 50.3479993 66.6626867 47.6309205L67.5 46.8656736 67.5 56.3355209 67.4912703 56.3355209zM24.5 15.9157303L24.5 15.4157303 24 15.4157303 24 15.9157303 24.5 15.9157303zM67.5 15.9157303L68 15.9157303 68 15.4157303 67.5 15.4157303 67.5 15.9157303zM67.5 55.0842697L67.5 55.5842697 68 55.5842697 68 55.0842697 67.5 55.0842697zM24.5 56.0150867L24.458571 55.7022472 24 55.7022472 24 56.2022472 24.5 56.2022472 24.5 56.0150867zM46 21.5C34.100317 21.5 24.5 18.7570523 24.5 15 24.5 11.2429477 34.100317 8.5 46 8.5 57.899683 8.5 67.5 11.2429477 67.5 15 67.5 18.7570523 57.899683 21.5 46 21.5zM210.489967 35.5121854C210.140182 38.9988885 200.688015 41.5 189 41.5 177.311985 41.5 167.859818 38.9988885 167.510033 35.5121854L167.5 35.5121854 167.5 26.8875345 168.331942 27.626082C171.30541 30.2657474 179.580397 32.1170596 189 32.1170596 198.419603 32.1170596 206.69459 30.2657474 209.668058 27.626082L210.5 26.8875345 210.5 35.5121854 210.489967 35.5121854zM167.50873 25.3355209L167.5 25.3355209 167.5 15.8656736 168.337313 16.6309205C171.310271 19.3479993 179.58243 21.2532814 189 21.2532814 198.41757 21.2532814 206.689729 19.3479993 209.662687 16.6309205L210.5 15.8656736 210.5 25.3355209 210.49127 25.3355209C210.164363 28.9167499 200.696916 31.5 189 31.5 177.303084 31.5 167.835637 28.9167499 167.50873 25.3355209zM167.510033 45.5121854L167.5 45.5121854 167.5 36.8875345 168.331942 37.626082C171.30541 40.2657474 179.580397 42.1170596 189 42.1170596 198.419603 42.1170596 206.69459 40.2657474 209.668058 37.626082L210.5 36.8875345 210.5 45.5121854 210.489967 45.5121854C210.140182 48.9988885 200.688015 51.5 189 51.5 177.311985 51.5 167.859818 48.9988885 167.510033 45.5121854zM210.49127 56.3355209C210.164363 59.9167499 200.696916 62.5 189 62.5 177.303084 62.5 167.835637 59.9167499 167.50873 56.3355209L167.5 56.3355209 167.5 46.8656736 168.337313 47.6309205C171.310271 50.3479993 179.58243 52.2532814 189 52.2532814 198.41757 52.2532814 206.689729 50.3479993 209.662687 47.6309205L210.5 46.8656736 210.5 56.3355209 210.49127 56.3355209zM167.5 15.9157303L167.5 15.4157303 167 15.4157303 167 15.9157303 167.5 15.9157303zM210.5 15.9157303L211 15.9157303 211 15.4157303 210.5 15.4157303 210.5 15.9157303zM210.5 55.0842697L210.5 55.5842697 211 55.5842697 211 55.0842697 210.5 55.0842697zM167.5 56.0150867L167.458571 55.7022472 167 55.7022472 167 56.2022472 167.5 56.2022472 167.5 56.0150867zM189 21.5C177.100317 21.5 167.5 18.7570523 167.5 15 167.5 11.2429477 177.100317 8.5 189 8.5 200.899683 8.5 210.5 11.2429477 210.5 15 210.5 18.7570523 200.899683 21.5 189 21.5zM140.489967 35.5121854C140.140182 38.9988885 130.688015 41.5 119 41.5 107.311985 41.5 97.8598176 38.9988885 97.5100329 35.5121854L97.5 35.5121854 97.5 26.8875345 98.3319418 27.626082C101.30541 30.2657474 109.580397 32.1170596 119 32.1170596 128.419603 32.1170596 136.69459 30.2657474 139.668058 27.626082L140.5 26.8875345 140.5 35.5121854 140.489967 35.5121854zM97.5087297 25.3355209L97.5 25.3355209 97.5 15.8656736 98.3373133 16.6309205C101.310271 19.3479993 109.58243 21.2532814 119 21.2532814 128.41757 21.2532814 136.689729 19.3479993 139.662687 16.6309205L140.5 15.8656736 140.5 25.3355209 140.49127 25.3355209C140.164363 28.9167499 130.696916 31.5 119 31.5 107.303084 31.5 97.8356373 28.9167499 97.5087297 25.3355209zM97.5100329 45.5121854L97.5 45.5121854 97.5 36.8875345 98.3319418 37.626082C101.30541 40.2657474 109.580397 42.1170596 119 42.1170596 128.419603 42.1170596 136.69459 40.2657474 139.668058 37.626082L140.5 36.8875345 140.5 45.5121854 140.489967 45.5121854C140.140182 48.9988885 130.688015 51.5 119 51.5 107.311985 51.5 97.8598176 48.9988885 97.5100329 45.5121854zM140.49127 56.3355209C140.164363 59.9167499 130.696916 62.5 119 62.5 107.303084 62.5 97.8356373 59.9167499 97.5087297 56.3355209L97.5 56.3355209 97.5 46.8656736 98.3373133 47.6309205C101.310271 50.3479993 109.58243 52.2532814 119 52.2532814 128.41757 52.2532814 136.689729 50.3479993 139.662687 47.6309205L140.5 46.8656736 140.5 56.3355209 140.49127 56.3355209zM97.5 15.9157303L97.5 15.4157303 97 15.4157303 97 15.9157303 97.5 15.9157303zM140.5 15.9157303L141 15.9157303 141 15.4157303 140.5 15.4157303 140.5 15.9157303zM140.5 55.0842697L140.5 55.5842697 141 55.5842697 141 55.0842697 140.5 55.0842697zM97.5 56.0150867L97.458571 55.7022472 97 55.7022472 97 56.2022472 97.5 56.2022472 97.5 56.0150867zM119 21.5C107.100317 21.5 97.5 18.7570523 97.5 15 97.5 11.2429477 107.100317 8.5 119 8.5 130.899683 8.5 140.5 11.2429477 140.5 15 140.5 18.7570523 130.899683 21.5 119 21.5z"/>
    </g>
    <path fill="#F05133" fill-rule="nonzero" d="M434.321991,658.535935 L395.461396,619.678545 C393.225457,617.440485 389.59602,617.440485 387.357269,619.678545 L379.288295,627.748624 L389.523525,637.984265 C391.90297,637.180851 394.630282,637.719523 396.526088,639.61578 C398.431738,641.52385 398.966544,644.274551 398.143008,646.66206 L408.007951,656.5274 C410.394583,655.704923 413.14822,656.236299 415.053948,658.145478 C417.718295,660.809151 417.718295,665.125354 415.053948,667.78973 C412.38921,670.454965 408.073181,670.454965 405.406959,667.78973 C403.403581,665.78471 402.908069,662.841045 403.922764,660.372601 L394.722619,651.172086 L394.721838,675.383103 C395.371402,675.704672 395.984407,676.133863 396.525698,676.672832 C399.189263,679.336192 399.189263,683.651614 396.525698,686.319427 C393.86135,688.982709 389.543368,688.982709 386.881833,686.319427 C384.217876,683.651848 384.217876,679.336426 386.881833,676.672832 C387.540186,676.015624 388.301969,675.518178 389.114804,675.18475 L389.114804,650.748739 C388.301579,650.416717 387.540694,649.922982 386.881364,649.260501 C384.863535,647.244153 384.377553,644.28252 385.412403,641.804545 L375.322476,631.71265 L348.679005,658.356409 C346.440332,660.596188 346.440332,664.22577 348.679005,666.463987 L387.537256,705.321455 C389.774445,707.559515 393.402632,707.559515 395.642946,705.321455 L434.321522,666.647575 C436.559493,664.408421 436.559493,660.777745 434.321522,658.539216"/>
    <g transform="translate(457 618)">
      <use fill="#FF9E61" fill-opacity=".2" stroke="#FF6300" stroke-dasharray="4 2" stroke-linejoin="bevel" stroke-width="6" mask="url(#architectures-i)" xlink:href="#architectures-c"/>
      <text fill="#160051" font-family="ArialMT, Arial" font-size="11">
        <tspan x="33.961" y="43">Diagram Sync </tspan> <tspan x="39.155" y="55">Data Server</tspan>
      </text>
    </g>
    <g transform="translate(297 316)">
      <use fill="#4E61FD" fill-opacity=".2" stroke="#001CFF" stroke-dasharray="4 2" stroke-linejoin="bevel" stroke-opacity=".296" stroke-width="4" mask="url(#architectures-j)" xlink:href="#architectures-d"/>
      <g fill="#1475B9" transform="translate(57 11)">
        <path d="M2.28865652,42.1387535 L0,41.8344211 L0,39.4386377 L2.29235665,39.1399166 C2.48845022,36.7391214 3.14428037,34.4645758 4.17401498,32.3999411 L2.33163108,31.0085605 L3.56060412,28.9337513 L5.73962356,29.8085187 C7.11180885,27.9018336 8.83572714,26.2531837 10.819535,24.9520895 L9.90426082,22.7694217 L12.0329046,21.57153 L13.5309946,23.4666229 C15.6275595,22.5253619 17.9256659,21.9376632 20.3448822,21.7819241 L20.6888092,19.3246753 L23.1467553,19.3246753 L23.4896649,21.8247124 C25.863727,22.0430141 28.113364,22.678037 30.1607641,23.6539368 L31.7955652,21.5973383 L33.9242089,22.79523 L32.8918102,25.2384714 C34.7625801,26.536989 36.3870328,28.1507821 37.6835589,30.0003054 L40.2484825,28.9784524 L41.4774555,31.0532617 L39.2659865,32.7141432 C40.198709,34.6755739 40.7968954,36.8189284 40.9891503,39.0746172 L43.7826087,39.4386377 L43.7826087,41.8344211 L40.992904,42.20538 C40.804777,44.4774462 40.2048651,46.6361557 39.2659865,48.6105321 L41.4774555,50.2714136 L40.2484825,52.3462229 L37.6835589,51.3243699 C36.3870328,53.1738932 34.7625801,54.7876863 32.8918102,56.0862039 L33.9242089,58.5294453 L31.7955652,59.727337 L30.1607641,57.6707385 C28.113364,58.6466383 25.863727,59.2816612 23.4896649,59.499963 L23.1467553,62 L20.6888092,62 L20.3448822,59.5427512 C17.9256659,59.3870122 15.6275595,58.7993134 13.5309946,57.8580524 L12.0329046,59.7531453 L9.90426082,58.5552536 L10.819535,56.3725858 C8.83572714,55.0714916 7.11180885,53.4228417 5.73962356,51.5161567 L3.56060412,52.3909241 L2.33163108,50.3161148 L4.17401498,48.9247342 C3.13770515,46.8469161 2.48009005,44.5564978 2.28865652,42.1387535 Z M21.6434783,56.3636364 C30.5400652,56.3636364 37.7521739,49.3339255 37.7521739,40.6623377 C37.7521739,31.9907498 30.5400652,24.961039 21.6434783,24.961039 C12.7468913,24.961039 5.53478261,31.9907498 5.53478261,40.6623377 C5.53478261,49.3339255 12.7468913,56.3636364 21.6434783,56.3636364 Z"/>
        <path d="M36.3046606,18.5095351 L34.4478261,18.2626239 L34.4478261,16.3188752 L36.3076626,16.0765165 C36.4667574,14.1287016 36.998846,12.2833155 37.8342911,10.6082345 L36.3395268,9.47937857 L37.3366181,7.79604274 L39.1045018,8.50575968 C40.2177842,6.95882653 41.6164349,5.62124262 43.2259394,4.56563793 L42.4833584,2.79479427 L44.2103713,1.82291987 L45.4258028,3.36044804 C47.1267895,2.59678344 48.9912909,2.11997126 50.9540513,1.99361692 L51.2330864,0 L53.227269,0 L53.5054788,2.02833193 C55.4316046,2.2054447 57.2567818,2.72065193 58.91788,3.51241967 L60.244228,1.84385863 L61.9712409,2.81573303 L61.1336343,4.79798551 C62.6514288,5.85149977 63.969381,7.16080364 65.0212795,8.66136024 L67.1022552,7.83230974 L68.0993466,9.51564557 L66.3051359,10.8631532 C67.061873,12.4545026 67.547194,14.1934506 67.7031745,16.0235377 L69.9695652,16.3188752 L69.9695652,18.2626239 L67.7062199,18.5635905 C67.5535886,20.406965 67.0668676,22.1583709 66.3051359,23.7602234 L68.0993466,25.107731 L67.1022552,26.7910669 L65.0212795,25.9620164 C63.969381,27.462573 62.6514288,28.7718769 61.1336343,29.8253911 L61.9712409,31.8076436 L60.244228,32.779518 L58.91788,31.110957 C57.2567818,31.9027247 55.4316046,32.4179319 53.5054788,32.5950447 L53.227269,34.6233766 L51.2330864,34.6233766 L50.9540513,32.6297597 C48.9912909,32.5034054 47.1267895,32.0265932 45.4258028,31.2629286 L44.2103713,32.8004568 L42.4833584,31.8285824 L43.2259394,30.0577387 C41.6164349,29.002134 40.2177842,27.6645501 39.1045018,26.1176169 L37.3366181,26.8273339 L36.3395268,25.1439981 L37.8342911,24.0151421 C36.9935114,22.3293651 36.4599746,20.4711012 36.3046606,18.5095351 Z M52.0434783,29.4701299 C58.8870067,29.4701299 64.4347826,24.06266 64.4347826,17.3922078 C64.4347826,10.7217556 58.8870067,5.31428571 52.0434783,5.31428571 C45.1999498,5.31428571 39.6521739,10.7217556 39.6521739,17.3922078 C39.6521739,24.06266 45.1999498,29.4701299 52.0434783,29.4701299 Z"/>
        <path d="M52.0434783 27.0545455C57.518301 27.0545455 61.9565217 22.7285695 61.9565217 17.3922078 61.9565217 12.0558461 57.518301 7.72987013 52.0434783 7.72987013 46.5686555 7.72987013 42.1304348 12.0558461 42.1304348 17.3922078 42.1304348 22.7285695 46.5686555 27.0545455 52.0434783 27.0545455zM10.1777786 41.0954473L8.83913043 40.9231837 8.83913043 39.5670799 10.1799428 39.3979925C10.2946391 38.0390518 10.6782378 36.7515732 11.2805354 35.582912L10.2029147 34.7953381 10.9217479 33.6209178 12.1962687 34.1160691C12.9988677 33.0368134 14.0071973 32.1036154 15.1675377 31.367147L14.6321886 30.1316746 15.8772444 29.4536227 16.7534857 30.5263168C17.9797785 29.9935276 19.3239539 29.6608679 20.7389672 29.5727137L20.940132 28.1818182 22.3777986 28.1818182 22.5783684 29.5969335C23.9669707 29.7205005 25.2827962 30.0799474 26.4803321 30.6323435L27.4365365 29.4682312 28.6815923 30.1462831 28.0777364 31.5292499C29.1719603 32.2642599 30.1221119 33.1777277 30.8804573 34.2246277L32.3806956 33.6462203 33.0995289 34.8206407 31.8060282 35.7607623C32.3515829 36.871006 32.7014655 38.0842256 32.8139165 39.3610305L34.4478261 39.5670799 34.4478261 40.9231837 32.816112 41.1331604C32.7060755 42.4192356 32.3551836 43.6411467 31.8060282 44.7587182L33.0995289 45.6988398 32.3806956 46.8732602 30.8804573 46.2948529C30.1221119 47.3417528 29.1719603 48.2552206 28.0777364 48.9902306L28.6815923 50.3731974 27.4365365 51.0512493 26.4803321 49.887137C25.2827962 50.4395331 23.9669707 50.79898 22.5783684 50.922547L22.3777986 52.3376623 20.940132 52.3376623 20.7389672 50.9467668C19.3239539 50.8586126 17.9797785 50.525953 16.7534857 49.9931637L15.8772444 51.0658578 14.6321886 50.3878059 15.1675377 49.1523335C14.0071973 48.4158652 12.9988677 47.4826671 12.1962687 46.4034114L10.9217479 46.8985628 10.2029147 45.7241424 11.2805354 44.9365685C10.6743919 43.760445 10.2897491 42.4639818 10.1777786 41.0954473zM21.6434783 46.8623377C25.2933601 46.8623377 28.2521739 43.9783537 28.2521739 40.4207792 28.2521739 36.8632047 25.2933601 33.9792208 21.6434783 33.9792208 17.9935964 33.9792208 15.0347826 36.8632047 15.0347826 40.4207792 15.0347826 43.9783537 17.9935964 46.8623377 21.6434783 46.8623377zM51.4821264 45.1214213L50.1434783 44.9491578 50.1434783 43.5930539 51.4842906 43.4239665C51.5989869 42.0650259 51.9825856 40.7775472 52.5848833 39.6088861L51.5072625 38.8213121 52.2260958 37.6468918 53.5006166 38.1420431C54.3032155 37.0627875 55.3115451 36.1295894 56.4718855 35.393121L55.9365365 34.1576487 57.1815923 33.4795968 58.0578336 34.5522908C59.2841263 34.0195016 60.6283017 33.6868419 62.043315 33.5986877L62.2444799 32.2077922 63.6821464 32.2077922 63.8827163 33.6229075C65.2713186 33.7464746 66.587144 34.1059215 67.7846799 34.6583176L68.7408843 33.4942052 69.9859401 34.1722571 69.3820842 35.555224C70.4763081 36.2902339 71.4264597 37.2037017 72.1848052 38.2506017L73.6850435 37.6721944 74.4038768 38.8466147 73.110376 39.7867363C73.6559307 40.8969801 74.0058133 42.1101996 74.1182643 43.3870046L75.7521739 43.5930539 75.7521739 44.9491578 74.1204598 45.1591345C74.0104233 46.4452097 73.6595314 47.6671207 73.110376 48.7846923L74.4038768 49.7248139 73.6850435 50.8992342 72.1848052 50.3208269C71.4264597 51.3677268 70.4763081 52.2811947 69.3820842 53.0162046L69.9859401 54.3991715 68.7408843 55.0772234 67.7846799 53.913111C66.587144 54.4655071 65.2713186 54.824954 63.8827163 54.9485211L63.6821464 56.3636364 62.2444799 56.3636364 62.043315 54.9727408C60.6283017 54.8845866 59.2841263 54.551927 58.0578336 54.0191377L57.1815923 55.0918318 55.9365365 54.4137799 56.4718855 53.1783076C55.3115451 52.4418392 54.3032155 51.5086411 53.5006166 50.4293854L52.2260958 50.9245368 51.5072625 49.7501164 52.5848833 48.9625425C51.9787398 47.7864191 51.594097 46.4899558 51.4821264 45.1214213zM62.9478261 50.8883117C66.5977079 50.8883117 69.5565217 48.0043277 69.5565217 44.4467532 69.5565217 40.8891788 66.5977079 38.0051948 62.9478261 38.0051948 59.2979443 38.0051948 56.3391304 40.8891788 56.3391304 44.4467532 56.3391304 48.0043277 59.2979443 50.8883117 62.9478261 50.8883117z"/>
      </g>
      <text fill="#160051" font-family="ArialMT, Arial" font-size="11">
        <tspan x="58" y="87">Service Worker</tspan>
      </text>
    </g>
    <g transform="translate(458 87)">
      <use fill="#646464" fill-opacity=".2" stroke="#00B4FF" stroke-dasharray="3 2" stroke-linejoin="round" stroke-width="4" mask="url(#architectures-k)" xlink:href="#architectures-e"/>
      <rect width="28" height="41" x="17" y="24" fill="#0084A8" rx="6"/>
      <rect width="28" height="41" x="40" y="99" fill="#0084A8" rx="6"/>
      <rect width="28" height="41" x="71" y="44" fill="#0084A8" rx="6"/>
      <path stroke="#EA9300" d="M45 44C49.4488027 43.9992607 53.6154694 45.1045612 57.5 47.3159016 66.9569368 52.6994363 70 51.9664205 70 51.9664205M99.50958 53C99.50958 53 99.7883024 53 100.345747 53 106.017647 53 113.189326 75.8399905 102.453128 93.9206502 90.2651593 114.446213 75.2002935 120 69.3322071 120 68.444069 120 68 120 68 120"/>
      <text fill="#160051" font-family="ArialMT, Arial" font-size="11">
        <tspan x="45" y="159">Diagram</tspan>
      </text>
    </g>
    <g transform="translate(161 119)">
      <use fill="#A88282" fill-opacity=".2" stroke="#A88282" stroke-dasharray="3 2" stroke-width="4" mask="url(#architectures-l)" xlink:href="#architectures-f"/>
      <g transform="translate(83 10)">
        <rect width="62" height="54" fill="#2A4786" rx="27"/>
        <text fill="#FFF" font-family="Arial-BoldMT, Arial" font-size="11" font-weight="bold">
          <tspan x="13.227" y="31.448">Plugin</tspan>
        </text>
      </g>
      <g transform="translate(11 73)">
        <rect width="62" height="54" fill="#2A4786" rx="27"/>
        <text fill="#FFF" font-family="Arial-BoldMT, Arial" font-size="11" font-weight="bold">
          <tspan x="13.227" y="31.448">Plugin</tspan>
        </text>
      </g>
      <g transform="translate(11 10)">
        <rect width="62" height="54" fill="#2A4786" rx="27"/>
        <text fill="#FFF" font-family="Arial-BoldMT, Arial" font-size="11" font-weight="bold">
          <tspan x="13.227" y="31.448">Plugin</tspan>
        </text>
      </g>
      <g transform="translate(83 73)">
        <rect width="62" height="54" fill="#2A4786" rx="27"/>
        <text fill="#FFF" font-family="Arial-BoldMT, Arial" font-size="11" font-weight="bold">
          <tspan x="13.227" y="31.448">Plugin</tspan>
        </text>
      </g>
    </g>
    <path fill="#979797" fill-rule="nonzero" d="M164.000002 450.5L164.000269 385.337586C164.082382 382.834825 164.935429 380.871382 166.560495 379.483839 168.174018 378.106152 170.367546 377.450233 173.109053 377.502853L289.471756 377.396109 289.468087 373.396111 298.472211 377.887853 289.476343 382.396107 289.472674 378.396108 173.099935 378.502761C170.577148 378.454431 168.621113 379.039335 167.209836 380.244336 165.810103 381.439481 165.07304 383.135967 165 385.353981L165 450.5 169 450.5 164.5 459.5 160 450.5 164.000002 450.5zM289.467991 354.480849L247.119089 354.385367C244.367546 354.438079 242.174018 353.78216 240.560495 352.404473 238.935429 351.01693 238.082382 349.053486 238 346.53433L238 267.5 234 267.5 238.5 258.5 243 267.5 238.999998 267.5 238.999731 346.517934C239.07304 348.752344 239.810103 350.448831 241.209836 351.643976 242.621113 352.848977 244.577148 353.43388 247.110638 353.38546L289.477069 353.480868 289.513412 349.477568 298.472191 354.059084 289.431711 358.477198 289.467991 354.480849zM390.517133 609.5L390.517224 504.57995C390.565554 502.057163 389.98065 500.101127 388.775649 498.689851 387.580504 497.290118 385.884018 496.553055 383.666004 496.480015L314.019985 496.480015C313.743843 496.480015 313.519985 496.256157 313.519985 495.980015 313.519985 495.703872 313.743843 495.480015 314.019985 495.480015L383.6824 495.480284C386.18516 495.562397 388.148603 496.415444 389.536146 498.04051 390.913833 499.654032 391.569753 501.847561 391.517132 504.589527L391.517132 609.5 395.517132 609.5 391.017132 618.5 386.517132 609.5 390.517133 609.5zM525.995223 267.5L525.992125 348.696611C526.186855 350.432363 525.786709 352.000656 524.795593 353.376879 523.784774 354.780462 522.421171 355.496618 520.752164 355.496611L495.502616 355.635168 495.524565 359.635107 486.500008 355.184562 495.475179 350.635243 495.497128 354.635183 520.74942 354.496618C522.095693 354.496618 523.159049 353.93815 523.984125 352.792483 524.828904 351.619456 525.16568 350.299532 524.995242 348.752355L524.995242 267.5 520.995242 267.5 525.495242 258.5 529.995242 267.5 525.995223 267.5zM495.494226 377.418209L519.360835 377.502587C521.744826 377.605897 523.475199 378.286639 524.517895 379.571671 525.537897 380.828735 526.039971 382.561897 526.039961 384.758235L524.681019 609.503179 528.680945 609.527365 524.126609 618.499991 519.68111 609.472946 523.681037 609.497132 525.039971 384.755211C525.039971 382.774689 524.601819 381.262186 523.74137 380.201757 522.903615 379.169297 521.440359 378.593642 519.337429 378.502115L495.504953 378.418245 495.547779 382.410687 486.500029 378.007481 495.451243 373.411205 495.494226 377.418209z"/>
    <text fill="#160051" font-family="ArialMT, Arial" font-size="11" transform="rotate(90 538 499)">
      <tspan x="481" y="503">Sync data across client</tspan>
    </text>
    <text fill="#160051" font-family="ArialMT, Arial" font-size="11" transform="rotate(90 405 516)">
      <tspan x="327" y="520">Push Code generated via HTTP</tspan>
    </text>
    <text fill="#160051" font-family="ArialMT, Arial" font-size="11">
      <tspan x="328.905" y="510">Push via</tspan> <tspan x="338.691" y="522">SSH</tspan>
    </text>
    <text fill="#160051" font-family="ArialMT, Arial" font-size="11">
      <tspan x="68.392" y="572">Native Client TCP</tspan> <tspan x="84.175" y="584">Connection</tspan>
    </text>
    <text fill="#160051" font-family="ArialMT, Arial" font-size="11">
      <tspan x="65.088" y="413">Proxy Connection</tspan> <tspan x="61.114" y="425">to Database Server</tspan>
    </text>
    <text fill="#160051" font-family="ArialMT, Arial" font-size="11">
      <tspan x="156.01" y="287">Service Worker</tspan> <tspan x="163.231" y="299">Interconnect</tspan>
    </text>
    <text fill="#160051" font-family="ArialMT, Arial" font-size="11">
      <tspan x="533.01" y="285">Service Worker</tspan> <tspan x="540.231" y="297">Interconnect</tspan>
    </text>
  </g>
</svg>
